<svg width="25" height="25" viewBox="0 0 25 25" fill="none" xmlns="http://www.w3.org/2000/svg">
<path d="M11.5486 4.59142H4.54858C4.01815 4.59142 3.50944 4.80214 3.13437 5.17721C2.7593 5.55228 2.54858 6.06099 2.54858 6.59142V20.5914C2.54858 21.1219 2.7593 21.6306 3.13437 22.0056C3.50944 22.3807 4.01815 22.5914 4.54858 22.5914H18.5486C19.079 22.5914 19.5877 22.3807 19.9628 22.0056C20.3379 21.6306 20.5486 21.1219 20.5486 20.5914V13.5914" stroke="black" stroke-width="2" stroke-linecap="round" stroke-linejoin="round"/>
<path d="M19.0486 3.09142C19.4464 2.6936 19.986 2.4701 20.5486 2.4701C21.1112 2.4701 21.6508 2.6936 22.0486 3.09142C22.4464 3.48925 22.6699 4.02882 22.6699 4.59142C22.6699 5.15403 22.4464 5.6936 22.0486 6.09142L12.5486 15.5914L8.54858 16.5914L9.54858 12.5914L19.0486 3.09142Z" stroke="black" stroke-width="2" stroke-linecap="round" stroke-linejoin="round"/>
</svg>
